<svg xmlns="http://www.w3.org/2000/svg" viewBox="0 0 960 460" width="100%" font-family="ui-sans-serif, system-ui, sans-serif">
  <rect width="960" height="460" fill="#0d1117" rx="6"/>
  <text x="480.0" y="30" text-anchor="middle" fill="#e6edf3" font-size="16" font-weight="600">Bytes-read reduction on ZyronLake vs Row heap on the same query (multiplier, higher is better)</text>
  <line x1="70" y1="350.0" x2="930" y2="350.0" stroke="#30363d" stroke-width="1"/>
  <text x="62" y="354.0" text-anchor="end" fill="#8b949e" font-size="11">0</text>
  <line x1="70" y1="292.0" x2="930" y2="292.0" stroke="#30363d" stroke-width="1"/>
  <text x="62" y="296.0" text-anchor="end" fill="#8b949e" font-size="11">78</text>
  <line x1="70" y1="234.0" x2="930" y2="234.0" stroke="#30363d" stroke-width="1"/>
  <text x="62" y="238.0" text-anchor="end" fill="#8b949e" font-size="11">156</text>
  <line x1="70" y1="176.0" x2="930" y2="176.0" stroke="#30363d" stroke-width="1"/>
  <text x="62" y="180.0" text-anchor="end" fill="#8b949e" font-size="11">235</text>
  <line x1="70" y1="118.0" x2="930" y2="118.0" stroke="#30363d" stroke-width="1"/>
  <text x="62" y="122.0" text-anchor="end" fill="#8b949e" font-size="11">313</text>
  <line x1="70" y1="60.0" x2="930" y2="60.0" stroke="#30363d" stroke-width="1"/>
  <text x="62" y="64.0" text-anchor="end" fill="#8b949e" font-size="11">391</text>
  <text x="62" y="52" text-anchor="end" fill="#8b949e" font-size="11">x less I/O</text>
  <rect x="132.0" y="97.3" width="48.0" height="252.7" fill="#a371f7" rx="2"/>
  <text x="156.0" y="93.3" text-anchor="middle" fill="#e6edf3" font-size="10">341x</text>
  <text x="156.0" y="370" text-anchor="middle" fill="#e6edf3" font-size="12">Point lookup</text>
  <rect x="304.0" y="283.0" width="48.0" height="67.0" fill="#a371f7" rx="2"/>
  <text x="328.0" y="279.0" text-anchor="middle" fill="#e6edf3" font-size="10">90x</text>
  <text x="328.0" y="370" text-anchor="middle" fill="#e6edf3" font-size="12">Join</text>
  <rect x="476.0" y="304.0" width="48.0" height="46.0" fill="#a371f7" rx="2"/>
  <text x="500.0" y="300.0" text-anchor="middle" fill="#e6edf3" font-size="10">62x</text>
  <text x="500.0" y="370" text-anchor="middle" fill="#e6edf3" font-size="12">Point lookup (full row)</text>
  <rect x="648.0" y="316.4" width="48.0" height="33.6" fill="#a371f7" rx="2"/>
  <text x="672.0" y="312.4" text-anchor="middle" fill="#e6edf3" font-size="10">45x</text>
  <text x="672.0" y="370" text-anchor="middle" fill="#e6edf3" font-size="12">Range scan</text>
  <rect x="820.0" y="324.7" width="48.0" height="25.3" fill="#a371f7" rx="2"/>
  <text x="844.0" y="320.7" text-anchor="middle" fill="#e6edf3" font-size="10">34x</text>
  <text x="844.0" y="370" text-anchor="middle" fill="#e6edf3" font-size="12">Aggregate</text>
</svg>