<svg xmlns="http://www.w3.org/2000/svg" viewBox="0 0 960 460" width="100%" font-family="ui-sans-serif, system-ui, sans-serif">
  <rect width="960" height="460" fill="#0d1117" rx="6"/>
  <text x="480.0" y="30" text-anchor="middle" fill="#e6edf3" font-size="16" font-weight="600">Hot-path latency (nanoseconds, lower is better)</text>
  <line x1="70" y1="350.0" x2="930" y2="350.0" stroke="#30363d" stroke-width="1"/>
  <text x="62" y="354.0" text-anchor="end" fill="#8b949e" font-size="11">0</text>
  <line x1="70" y1="292.0" x2="930" y2="292.0" stroke="#30363d" stroke-width="1"/>
  <text x="62" y="296.0" text-anchor="end" fill="#8b949e" font-size="11">29</text>
  <line x1="70" y1="234.0" x2="930" y2="234.0" stroke="#30363d" stroke-width="1"/>
  <text x="62" y="238.0" text-anchor="end" fill="#8b949e" font-size="11">58</text>
  <line x1="70" y1="176.0" x2="930" y2="176.0" stroke="#30363d" stroke-width="1"/>
  <text x="62" y="180.0" text-anchor="end" fill="#8b949e" font-size="11">88</text>
  <line x1="70" y1="118.0" x2="930" y2="118.0" stroke="#30363d" stroke-width="1"/>
  <text x="62" y="122.0" text-anchor="end" fill="#8b949e" font-size="11">117</text>
  <line x1="70" y1="60.0" x2="930" y2="60.0" stroke="#30363d" stroke-width="1"/>
  <text x="62" y="64.0" text-anchor="end" fill="#8b949e" font-size="11">146</text>
  <text x="62" y="52" text-anchor="end" fill="#8b949e" font-size="11">ns/op</text>
  <rect x="99.8" y="344.4" width="48.0" height="5.6" fill="#1f6feb" rx="2"/>
  <text x="123.8" y="340.4" text-anchor="middle" fill="#e6edf3" font-size="10">2.8</text>
  <text x="123.8" y="370" text-anchor="middle" fill="#e6edf3" font-size="12">MVCC visible</text>
  <rect x="207.2" y="323.7" width="48.0" height="26.3" fill="#1f6feb" rx="2"/>
  <text x="231.2" y="319.7" text-anchor="middle" fill="#e6edf3" font-size="10">13.2</text>
  <text x="231.2" y="370" text-anchor="middle" fill="#e6edf3" font-size="12">Version lookup</text>
  <rect x="314.8" y="324.1" width="48.0" height="25.9" fill="#1f6feb" rx="2"/>
  <text x="338.8" y="320.1" text-anchor="middle" fill="#e6edf3" font-size="10">13.0</text>
  <text x="338.8" y="370" text-anchor="middle" fill="#e6edf3" font-size="12">B+tree lookup</text>
  <rect x="422.2" y="241.1" width="48.0" height="108.9" fill="#1f6feb" rx="2"/>
  <text x="446.2" y="237.1" text-anchor="middle" fill="#e6edf3" font-size="10">54.8</text>
  <text x="446.2" y="370" text-anchor="middle" fill="#e6edf3" font-size="12">Branch resolve</text>
  <rect x="529.8" y="96.8" width="48.0" height="253.2" fill="#1f6feb" rx="2"/>
  <text x="553.8" y="92.8" text-anchor="middle" fill="#e6edf3" font-size="10">127.5</text>
  <text x="553.8" y="370" text-anchor="middle" fill="#e6edf3" font-size="12">Row lock</text>
  <rect x="637.2" y="327.8" width="48.0" height="22.2" fill="#1f6feb" rx="2"/>
  <text x="661.2" y="323.8" text-anchor="middle" fill="#e6edf3" font-size="10">11.2</text>
  <text x="661.2" y="370" text-anchor="middle" fill="#e6edf3" font-size="12">Legal-hold check</text>
  <rect x="744.8" y="336.9" width="48.0" height="13.1" fill="#1f6feb" rx="2"/>
  <text x="768.8" y="332.9" text-anchor="middle" fill="#e6edf3" font-size="10">6.6</text>
  <text x="768.8" y="370" text-anchor="middle" fill="#e6edf3" font-size="12">Bloom probe</text>
  <rect x="852.2" y="152.7" width="48.0" height="197.3" fill="#1f6feb" rx="2"/>
  <text x="876.2" y="148.7" text-anchor="middle" fill="#e6edf3" font-size="10">99.4</text>
  <text x="876.2" y="370" text-anchor="middle" fill="#e6edf3" font-size="12">Selectivity est</text>
</svg>