<svg xmlns="http://www.w3.org/2000/svg" viewBox="0 0 960 460" width="100%" font-family="ui-sans-serif, system-ui, sans-serif">
  <rect width="960" height="460" fill="#0d1117" rx="6"/>
  <text x="480.0" y="30" text-anchor="middle" fill="#e6edf3" font-size="16" font-weight="600">Consensus and replication throughput (thousand ops/sec, higher is better)</text>
  <line x1="70" y1="350.0" x2="930" y2="350.0" stroke="#30363d" stroke-width="1"/>
  <text x="62" y="354.0" text-anchor="end" fill="#8b949e" font-size="11">0</text>
  <line x1="70" y1="292.0" x2="930" y2="292.0" stroke="#30363d" stroke-width="1"/>
  <text x="62" y="296.0" text-anchor="end" fill="#8b949e" font-size="11">151</text>
  <line x1="70" y1="234.0" x2="930" y2="234.0" stroke="#30363d" stroke-width="1"/>
  <text x="62" y="238.0" text-anchor="end" fill="#8b949e" font-size="11">302</text>
  <line x1="70" y1="176.0" x2="930" y2="176.0" stroke="#30363d" stroke-width="1"/>
  <text x="62" y="180.0" text-anchor="end" fill="#8b949e" font-size="11">453</text>
  <line x1="70" y1="118.0" x2="930" y2="118.0" stroke="#30363d" stroke-width="1"/>
  <text x="62" y="122.0" text-anchor="end" fill="#8b949e" font-size="11">604</text>
  <line x1="70" y1="60.0" x2="930" y2="60.0" stroke="#30363d" stroke-width="1"/>
  <text x="62" y="64.0" text-anchor="end" fill="#8b949e" font-size="11">755</text>
  <text x="62" y="52" text-anchor="end" fill="#8b949e" font-size="11">K ops/sec</text>
  <rect x="189.3" y="257.6" width="48.0" height="92.4" fill="#1f6feb" rx="2"/>
  <text x="213.3" y="253.6" text-anchor="middle" fill="#e6edf3" font-size="10">240.5</text>
  <text x="213.3" y="370" text-anchor="middle" fill="#e6edf3" font-size="12">Raft group writes</text>
  <rect x="476.0" y="331.1" width="48.0" height="18.9" fill="#1f6feb" rx="2"/>
  <text x="500.0" y="327.1" text-anchor="middle" fill="#e6edf3" font-size="10">49.1</text>
  <text x="500.0" y="370" text-anchor="middle" fill="#e6edf3" font-size="12">Replicated txn/sec</text>
  <rect x="762.7" y="97.5" width="48.0" height="252.5" fill="#1f6feb" rx="2"/>
  <text x="786.7" y="93.5" text-anchor="middle" fill="#e6edf3" font-size="10">657.4</text>
  <text x="786.7" y="370" text-anchor="middle" fill="#e6edf3" font-size="12">Log entries durable</text>
</svg>