<svg xmlns="http://www.w3.org/2000/svg" viewBox="0 0 960 460" width="100%" font-family="ui-sans-serif, system-ui, sans-serif">
  <rect width="960" height="460" fill="#0d1117" rx="6"/>
  <text x="480.0" y="30" text-anchor="middle" fill="#e6edf3" font-size="16" font-weight="600">Consensus hot-path latency (microseconds, lower is better)</text>
  <line x1="70" y1="350.0" x2="930" y2="350.0" stroke="#30363d" stroke-width="1"/>
  <text x="62" y="354.0" text-anchor="end" fill="#8b949e" font-size="11">0</text>
  <line x1="70" y1="292.0" x2="930" y2="292.0" stroke="#30363d" stroke-width="1"/>
  <text x="62" y="296.0" text-anchor="end" fill="#8b949e" font-size="11">7,106</text>
  <line x1="70" y1="234.0" x2="930" y2="234.0" stroke="#30363d" stroke-width="1"/>
  <text x="62" y="238.0" text-anchor="end" fill="#8b949e" font-size="11">14,211</text>
  <line x1="70" y1="176.0" x2="930" y2="176.0" stroke="#30363d" stroke-width="1"/>
  <text x="62" y="180.0" text-anchor="end" fill="#8b949e" font-size="11">21,317</text>
  <line x1="70" y1="118.0" x2="930" y2="118.0" stroke="#30363d" stroke-width="1"/>
  <text x="62" y="122.0" text-anchor="end" fill="#8b949e" font-size="11">28,422</text>
  <line x1="70" y1="60.0" x2="930" y2="60.0" stroke="#30363d" stroke-width="1"/>
  <text x="62" y="64.0" text-anchor="end" fill="#8b949e" font-size="11">35,528</text>
  <text x="62" y="52" text-anchor="end" fill="#8b949e" font-size="11">us</text>
  <rect x="132.0" y="349.4" width="48.0" height="0.6" fill="#1f6feb" rx="2"/>
  <text x="156.0" y="345.4" text-anchor="middle" fill="#e6edf3" font-size="10">71.1</text>
  <text x="156.0" y="370" text-anchor="middle" fill="#e6edf3" font-size="12">Follower read</text>
  <rect x="304.0" y="349.3" width="48.0" height="0.7" fill="#1f6feb" rx="2"/>
  <text x="328.0" y="345.3" text-anchor="middle" fill="#e6edf3" font-size="10">85.0</text>
  <text x="328.0" y="370" text-anchor="middle" fill="#e6edf3" font-size="12">Replication lag</text>
  <rect x="476.0" y="97.8" width="48.0" height="252.2" fill="#1f6feb" rx="2"/>
  <text x="500.0" y="93.8" text-anchor="middle" fill="#e6edf3" font-size="10">30894.3</text>
  <text x="500.0" y="370" text-anchor="middle" fill="#e6edf3" font-size="12">Linearizable read</text>
  <rect x="648.0" y="339.0" width="48.0" height="11.0" fill="#1f6feb" rx="2"/>
  <text x="672.0" y="335.0" text-anchor="middle" fill="#e6edf3" font-size="10">1347.0</text>
  <text x="672.0" y="370" text-anchor="middle" fill="#e6edf3" font-size="12">Replicated write p99</text>
  <rect x="820.0" y="337.6" width="48.0" height="12.4" fill="#1f6feb" rx="2"/>
  <text x="844.0" y="333.6" text-anchor="middle" fill="#e6edf3" font-size="10">1518.0</text>
  <text x="844.0" y="370" text-anchor="middle" fill="#e6edf3" font-size="12">Learner promoted</text>
</svg>